<svg width="356.59999999999997px" height="144.8px" xmlns="http://www.w3.org/2000/svg" viewBox="71.70000000000002 2.5999999999999943 356.59999999999997 144.8" style="background: rgba(0, 0, 0, 0);" preserveAspectRatio="xMidYMid"><defs><filter id="editing-extrude-glow"><feFlood flood-color="#333333" result="flood-1"></feFlood><feMorphology operator="erode" radius="1" in="SourceAlpha" result="erode"></feMorphology><feComposite operator="in" in="flood-1" in2="erode" result="comp1"></feComposite><feConvolveMatrix order="3,3" divisor="1" in="comp1" result="convolve" kernelMatrix="0 0 0 1 1 1 0 0 0"></feConvolveMatrix><feOffset dx="-3" dy="0" in="convolve" result="extrude"></feOffset><feComposite operator="in" in="flood-1" in2="extrude" result="comp-extrude"></feComposite><feFlood flood-color="#000000" result="flood-2"></feFlood><feComposite operator="in" in="flood-2" in2="SourceAlpha" result="comp2"></feComposite><feMorphology operator="dilate" radius="1" in="comp2" result="dilate"></feMorphology><feOffset dx="-4.5" dy="0" in="dilate" result="offset"></feOffset><feGaussianBlur in="offset" stdDeviation="5.8" result="blur"></feGaussianBlur><feComponentTransfer in="blur" result="shadow"><feFuncA type="linear" slope="0.8" intercept="-0.2"></feFuncA></feComponentTransfer><feMerge><feMergeNode in="shadow"></feMergeNode><feMergeNode in="comp-extrude"></feMergeNode><feMergeNode in="SourceGraphic"></feMergeNode></feMerge></filter></defs><g filter="url(#editing-extrude-glow)"><g transform="translate(127.074986577034, 102.69000053405762)"><path d="M17.54 0L0.63 0L10.27-51.90L10.27-51.90Q18.09-52.77 29.51-52.77L29.51-52.77L29.51-52.77Q40.92-52.77 46.22-49.45L46.22-49.45L46.22-49.45Q51.51-46.14 51.51-39.46L51.51-39.46L51.51-39.46Q51.51-32.79 48.07-28.60L48.07-28.60L48.07-28.60Q44.63-24.41 38.71-23.07L38.71-23.07L38.71-23.07Q40.05-16.51 43.13-11.22L43.13-11.22L43.13-11.22Q45.98-6.24 49.30-4.66L49.30-4.66L49.30-4.66Q48.11-1.34 45.70 0.12L45.70 0.12L45.70 0.12Q43.29 1.58 39.86 1.58L39.86 1.58L39.86 1.58Q36.42 1.58 33.73-0.43L33.73-0.43L33.73-0.43Q31.05-2.45 28.91-6.16L28.91-6.16L28.91-6.16Q24.41-14.22 23.94-26.94L23.94-26.94L24.49-26.94L24.49-26.94Q30.34-27.10 33.26-30.14L33.26-30.14L33.26-30.14Q36.18-33.18 36.18-39.58L36.18-39.58L36.18-39.58Q36.18-47.56 29.47-47.87L29.47-47.87L27.73-47.87L27.73-47.87Q27.02-47.87 26.62-47.80L26.62-47.80L17.54 0ZM71.50 0L54.27 0L64.31-52.14L81.69-52.14L71.50 0ZM91.56 0L82.87 0L92.35-52.14L109.34-52.14L121.66-16.27L128.22-52.14L136.99-52.06L127.35 0L109.26 0L97.88-34.52L91.56 0ZM140.15-19.28L140.15-19.28L140.15-19.28Q140.15-34.21 147.89-43.61L147.89-43.61L147.89-43.61Q156.10-53.80 170.40-53.80L170.40-53.80L170.40-53.80Q180.75-53.80 185.97-48.78L185.97-48.78L185.97-48.78Q191.18-43.77 191.18-33.18L191.18-33.18L191.18-33.18Q191.18-17.06 182.96-7.66L182.96-7.66L182.96-7.66Q174.83 1.58 161.16 1.58L161.16 1.58L161.16 1.58Q150.50 1.58 145.32-3.75L145.32-3.75L145.32-3.75Q140.15-9.09 140.15-19.28ZM160.92-35.63L160.92-35.63L160.92-35.63Q157.37-21.41 157.37-10.19L157.37-10.19L157.37-10.19Q157.37-7.50 158.28-5.77L158.28-5.77L158.28-5.77Q159.19-4.03 161.59-4.03L161.59-4.03L161.59-4.03Q164.00-4.03 165.50-5.17L165.50-5.17L165.50-5.17Q167.01-6.32 168.19-8.93L168.19-8.93L168.19-8.93Q170.09-13.19 171.86-22.24L171.86-22.24L171.86-22.24Q173.64-31.28 173.80-35.04L173.80-35.04L173.80-35.04Q173.96-38.79 173.96-41.63L173.96-41.63L173.96-41.63Q173.96-44.48 173.09-46.29L173.09-46.29L173.09-46.29Q172.22-48.11 169.89-48.11L169.89-48.11L169.89-48.11Q167.56-48.11 165.98-46.69L165.98-46.69L165.98-46.69Q163.06-44.00 160.92-35.63ZM211.25 0L194.34 0L203.98-51.90L203.98-51.90Q211.80-52.77 223.21-52.77L223.21-52.77L223.21-52.77Q234.63-52.77 239.92-49.45L239.92-49.45L239.92-49.45Q245.22-46.14 245.22-39.46L245.22-39.46L245.22-39.46Q245.22-32.79 241.78-28.60L241.78-28.60L241.78-28.60Q238.34-24.41 232.42-23.07L232.42-23.07L232.42-23.07Q233.76-16.51 236.84-11.22L236.84-11.22L236.84-11.22Q239.69-6.24 243.00-4.66L243.00-4.66L243.00-4.66Q241.82-1.34 239.41 0.12L239.41 0.12L239.41 0.12Q237 1.58 233.56 1.58L233.56 1.58L233.56 1.58Q230.13 1.58 227.44-0.43L227.44-0.43L227.44-0.43Q224.75-2.45 222.62-6.16L222.62-6.16L222.62-6.16Q218.12-14.22 217.65-26.94L217.65-26.94L218.20-26.94L218.20-26.94Q224.04-27.10 226.97-30.14L226.97-30.14L226.97-30.14Q229.89-33.18 229.89-39.58L229.89-39.58L229.89-39.58Q229.89-47.56 223.18-47.87L223.18-47.87L221.44-47.87L221.44-47.87Q220.73-47.87 220.33-47.80L220.33-47.80L211.25 0Z" fill="#eb6c6c"></path></g></g><style>text {
  font-size: 64px;
  font-family: Arial Black;
  dominant-baseline: central;
  text-anchor: middle;
}</style></svg>